<?xml version="1.0" standalone="no"?>
<!DOCTYPE svg PUBLIC "-//W3C//DTD SVG 20010904//EN"
 "http://www.w3.org/TR/2001/REC-SVG-20010904/DTD/svg10.dtd">
<svg version="1.0" xmlns="http://www.w3.org/2000/svg"
 width="258.000000pt" height="258.000000pt" viewBox="0 0 550.000000 550.000000"
 preserveAspectRatio="xMidYMid meet">
<metadata>
Created by potrace 1.16, written by Peter Selinger 2001-2019
</metadata>
<g transform="translate(0.000000,550.000000) scale(0.100000,-0.100000)"
fill="#44a838" stroke="none">
<path d="M180 4810 l0 -480 480 0 480 0 0 480 0 480 -480 0 -480 0 0 -480z
m829 23 c0 -175 -3 -330 -6 -345 l-5 -27 -339 0 -339 0 0 344 0 345 344 0 345
0 0 -317z"/>
<path d="M460 4805 l0 -205 205 0 205 0 0 205 0 205 -205 0 -205 0 0 -205z"/>
<path d="M1280 5150 l0 -140 135 0 135 0 0 70 0 70 -65 0 -65 0 0 70 0 70 -70
0 -70 0 0 -140z"/>
<path d="M1690 5150 l0 -140 135 0 134 0 6 -32 c3 -18 4 -44 1 -58 -2 -14 -5
-28 -5 -32 -1 -5 -154 -8 -341 -8 l-340 0 0 -275 0 -275 70 0 70 0 0 135 0
135 270 0 270 0 6 -25 c3 -14 4 -35 0 -48 -3 -12 -3 -32 0 -43 4 -16 12 -19
45 -16 21 2 50 1 64 -2 23 -6 25 -10 25 -71 l0 -65 -71 0 -70 0 2 58 c3 68 -4
83 -34 78 -12 -3 -39 -5 -59 -5 l-38 -1 0 -135 0 -135 135 0 135 0 0 -70 0
-70 -205 0 -205 0 -2 206 -3 206 -65 1 -65 2 -3 -207 -2 -208 70 0 70 0 0
-135 0 -135 -70 0 -70 0 0 70 0 70 -65 0 -65 0 0 -70 0 -70 -70 0 -70 0 0 135
0 135 -70 0 -70 0 0 70 0 70 -64 0 -64 0 -5 -37 c-3 -21 -5 -51 -4 -68 2 -30
2 -30 70 -33 l67 -3 0 -64 0 -65 -135 0 -135 0 0 65 0 65 -70 0 -70 0 0 70 0
70 -70 0 -70 0 0 -135 0 -135 -65 0 -65 0 0 65 0 65 -70 0 -70 0 0 -135 0
-135 135 0 135 0 0 70 0 70 70 0 70 0 0 -209 0 -209 -57 0 c-32 -1 -64 -1 -70
-1 -9 -1 -13 -21 -13 -66 l0 -65 -65 0 -65 0 0 -140 0 -140 -70 0 -69 0 -3
-67 -3 -68 -65 -1 -65 -1 -3 -137 -3 -136 70 0 70 0 3 138 3 137 108 3 c60 2
120 1 133 -2 l24 -6 0 -270 0 -270 -135 0 -135 0 0 65 0 65 -70 0 -70 0 0 -65
0 -65 70 0 70 0 0 -140 0 -140 -70 0 -70 0 0 -135 0 -135 70 0 70 0 0 -70 0
-70 -70 0 -70 0 0 -70 0 -70 70 0 70 0 0 -65 0 -65 -70 0 -70 0 0 -70 0 -70
480 0 480 0 0 70 0 70 140 0 140 0 0 135 0 135 65 0 65 0 0 -205 0 -205 70 0
70 0 0 -70 0 -70 70 0 70 0 0 -65 c0 -45 -4 -65 -12 -67 -7 0 -38 -2 -68 -2
l-55 -1 -3 -67 -3 -67 138 -3 138 -3 2 -135 2 -135 65 -3 66 -3 0 -64 0 -65
-135 0 -135 0 0 65 0 65 -70 0 -70 0 0 70 0 70 -70 0 -70 0 0 -70 0 -70 -65 0
-65 0 0 70 0 70 -70 0 -70 0 0 -70 0 -70 70 0 70 0 0 -65 0 -65 135 0 135 0 0
-140 0 -140 70 0 70 0 0 70 0 71 68 -3 67 -3 2 -35 c1 -19 2 -50 2 -67 l1 -33
340 0 340 0 0 140 0 140 -68 0 -69 0 1 63 1 62 68 3 67 3 0 70 0 70 -67 -3
-68 -3 2 -67 1 -68 -139 0 -139 0 0 70 0 70 70 0 69 0 3 138 3 137 130 0 130
0 3 -67 3 -68 69 0 70 0 0 -70 0 -70 135 0 135 0 0 -70 0 -70 70 0 70 0 0 -65
0 -65 70 0 70 0 0 65 0 65 135 0 135 0 0 -65 0 -65 -64 0 c-42 0 -65 -4 -68
-12 -3 -7 -4 -39 -3 -71 l2 -57 -209 0 -208 0 0 70 0 70 -64 0 c-75 0 -83 10
-71 86 l6 44 -70 0 -71 0 0 -135 0 -135 135 0 135 0 0 -70 0 -70 345 0 345 0
0 70 0 70 135 0 135 0 0 -70 0 -70 70 0 70 0 0 70 0 70 70 0 70 0 0 -70 0 -71
68 3 67 3 0 65 0 65 138 3 137 3 0 69 0 70 135 0 135 0 0 65 0 65 70 0 70 0 0
-65 0 -65 70 0 70 0 0 135 0 135 -140 0 -140 0 0 -70 0 -70 -65 0 -65 0 0 140
0 140 205 0 205 0 0 205 0 205 -70 0 -70 0 0 70 0 70 70 0 70 0 0 135 0 135
-70 0 -70 0 0 70 0 70 70 0 71 0 -3 66 -3 66 -67 2 -68 2 0 -68 0 -68 -70 0
-69 0 -3 66 -3 66 -130 2 -130 1 -3 68 -3 67 136 0 135 0 0 -64 0 -64 33 -5
c17 -3 48 -5 67 -4 l35 2 3 68 3 67 69 0 70 0 0 140 0 140 -70 0 -70 0 0 -140
0 -140 -70 0 -70 0 0 70 0 70 -272 -2 -273 -3 0 -65 0 -65 68 -3 67 -3 0 -71
0 -71 -135 6 -135 7 0 -140 0 -140 -140 0 -140 0 0 -205 0 -205 -65 0 -65 0 0
205 0 205 -70 0 -70 0 0 -70 0 -70 -70 0 -70 0 0 -65 0 -65 70 0 70 0 0 -140
0 -140 135 0 135 0 0 -205 0 -205 -65 0 -65 0 0 -70 0 -70 65 0 65 0 0 -65 0
-65 -135 0 -135 0 0 205 0 205 70 0 71 0 -3 67 -3 68 -65 0 -65 0 -3 -67 -3
-68 -69 0 -70 0 0 -70 0 -70 -135 0 -135 0 0 -70 0 -70 -70 0 -70 0 0 70 0 70
-70 0 -70 0 0 205 0 205 -205 0 -205 0 0 70 0 70 70 0 70 0 0 135 0 135 70 0
71 0 -2 -132 -1 -133 66 -3 66 -3 0 136 0 135 70 0 70 0 0 -65 0 -66 136 3
136 3 2 200 1 200 68 3 68 3 -3 66 -3 66 -59 0 c-70 -1 -81 -12 -74 -84 l5
-49 -68 0 -69 0 0 70 0 69 68 3 67 3 -4 63 -3 62 71 0 71 0 0 -65 c0 -45 4
-65 13 -66 6 0 63 0 125 0 62 0 119 -2 127 -6 11 -4 15 -22 15 -69 l0 -64 65
0 65 0 0 68 0 67 -63 1 -62 1 -3 67 -3 66 -69 0 -70 0 0 70 0 70 70 0 70 0 0
70 0 70 135 0 135 0 0 69 0 69 68 -2 67 -2 3 -67 3 -67 204 0 205 0 0 135 0
135 70 0 70 0 0 -68 0 -67 133 0 132 0 3 68 3 67 69 0 70 0 0 410 c0 321 -3
410 -12 412 -7 0 -38 2 -68 2 l-55 1 -3 138 -3 137 71 0 70 0 0 70 0 70 -70 0
-70 0 0 65 0 65 70 0 70 0 0 70 0 70 -140 0 -140 0 0 -410 0 -410 -65 0 -65 0
0 135 0 135 -70 0 -70 0 0 70 0 70 -70 0 -70 0 0 70 0 69 -67 3 -68 3 0 60 0
60 138 3 137 3 0 -66 0 -65 70 0 70 0 0 135 0 135 -204 0 c-231 0 -219 5 -211
-85 l6 -55 -211 0 -210 0 0 70 0 70 -65 0 -65 0 0 135 c0 121 2 135 18 136 9
1 31 3 47 4 60 5 65 0 65 -71 l0 -64 70 0 70 0 0 135 0 135 -70 0 -70 0 0 140
0 140 70 0 70 0 0 65 0 65 -70 0 -70 0 0 140 0 140 -135 0 -135 0 0 -70 0 -70
70 0 70 0 0 -135 0 -135 -140 0 -140 0 0 -140 0 -140 140 0 141 0 -3 -67 -3
-68 -65 0 -65 0 -3 -137 -3 -138 -69 0 -70 0 0 -70 0 -71 -67 3 -68 3 0 135 0
135 68 3 67 3 0 67 0 67 -65 0 -65 0 -2 -40 c-1 -22 -1 -52 0 -67 l2 -28 -70
0 -70 0 0 135 0 135 -70 0 -70 0 0 -135 0 -135 -70 0 -70 0 0 65 c0 36 -3 65
-7 65 -64 4 -123 4 -124 0 0 -3 -1 -63 -2 -135 l-2 -130 -67 -3 -68 -3 0 136
c0 74 -3 135 -7 136 -71 4 -110 5 -120 1 -10 -3 -13 -40 -13 -138 l0 -134 -69
0 -69 0 0 138 c0 155 11 138 -87 134 l-45 -2 0 -65 0 -65 -70 0 -70 0 0 135 0
135 70 0 70 0 0 70 0 70 65 0 65 0 1 55 c1 30 2 61 3 68 1 9 37 13 139 15
l137 3 0 -71 0 -70 -70 0 -70 0 0 -70 0 -70 70 0 70 0 0 70 0 71 68 -3 c51 -2
67 -7 68 -18 1 -8 2 -39 2 -67 l2 -53 65 0 65 0 0 140 0 140 -70 0 -69 0 5
160 c4 89 3 181 -1 205 l-6 45 -199 0 c-149 0 -199 -3 -203 -12 -2 -7 -3 -39
-2 -70 l3 -58 -69 0 -69 0 0 70 0 70 -70 0 -70 0 0 -70 0 -70 -70 0 -70 0 0
-70 0 -70 -64 0 c-61 0 -64 1 -70 26 -4 15 -7 72 -6 128 1 55 1 107 1 114 -1
9 -35 12 -136 12 l-135 0 0 -140z m1100 -70 l0 -70 -135 0 c-153 0 -150 1
-141 -87 l4 -43 -139 0 -139 0 0 -140 0 -140 -70 0 -70 0 0 70 0 70 -65 0
c-55 0 -65 3 -65 18 -1 9 -2 41 -4 70 l-3 52 68 0 69 0 0 65 0 65 208 2 207 3
-2 59 c-2 32 0 62 3 67 3 5 66 9 140 9 l134 0 0 -70z m550 -820 l0 -70 -70 0
-70 0 0 70 0 70 70 0 70 0 0 -70z m-823 -205 l2 -130 66 -3 65 -3 0 -69 0 -70
135 0 c135 0 142 2 136 34 -1 6 1 32 4 58 l7 48 64 0 64 0 0 65 0 64 -67 3
-68 3 0 55 c-1 80 -1 80 71 80 l64 0 0 -70 0 -70 70 0 70 0 0 -65 0 -65 -70 0
-70 0 0 -70 0 -70 -68 0 -69 0 1 -67 1 -68 -67 -3 -67 -3 -3 -67 -3 -67 -67
-1 -68 -2 0 140 0 139 -67 -3 -67 -3 2 -125 c1 -69 2 -128 2 -132 0 -4 28 -8
63 -10 l62 -3 3 -42 3 -43 135 0 c120 0 134 2 135 18 1 9 1 49 1 89 -1 112 0
113 74 113 l63 0 3 -67 3 -67 65 -1 65 0 3 -41 c3 -39 5 -42 36 -47 45 -7 97
-43 127 -86 21 -31 24 -50 27 -138 l4 -103 38 0 c45 0 51 -11 49 -83 -2 -40
-5 -47 -23 -48 -12 -1 -25 -2 -31 -4 -5 -1 -16 -3 -22 -3 -10 -2 -13 -49 -13
-202 0 -110 3 -200 8 -201 54 -6 72 -6 72 -1 1 4 2 66 3 137 l2 130 68 3 67 3
0 134 0 134 -67 3 -68 3 -1 120 c-1 66 -2 128 -3 138 -1 14 -11 17 -66 17
l-65 0 0 70 0 70 119 0 c66 0 126 -3 135 -6 14 -5 16 -33 16 -210 l0 -204 140
0 140 0 0 205 c0 157 -3 205 -12 206 -7 1 -22 3 -33 4 -11 1 -37 3 -57 3 l-38
2 0 135 0 135 -70 0 -70 0 0 -70 0 -71 -67 3 -67 3 -2 68 -3 67 70 0 69 0 0
135 0 135 140 0 140 0 0 -65 0 -65 65 0 65 0 0 -70 0 -70 70 0 70 0 0 70 0 70
70 0 70 0 0 -70 0 -70 135 0 135 0 0 -70 0 -70 70 0 70 0 0 -135 0 -135 70 0
70 0 0 -70 0 -70 65 0 65 0 0 70 0 70 70 0 70 0 0 -140 0 -140 -205 0 -204 0
-3 -67 -3 -68 -67 1 -68 2 -2 -207 -3 -206 -130 0 -130 0 -3 67 -3 67 67 3 66
3 0 120 c-1 114 5 157 21 156 4 -1 32 -1 62 -1 l55 0 0 65 0 65 -205 0 -204 0
-3 -67 -3 -68 -67 -3 -68 -3 0 -134 0 -135 70 0 71 0 -3 -67 -3 -68 -133 0
-132 0 0 -67 0 -68 -70 0 -70 0 0 65 0 65 -32 0 c-18 1 -79 2 -135 3 l-101 2
-4 -60 c-2 -33 -2 -63 0 -67 2 -5 32 -8 68 -8 l64 0 0 -70 0 -71 -67 3 -68 3
-1 45 c-3 96 0 90 -43 90 l-39 0 -4 -102 c-4 -116 -20 -153 -87 -199 l-36 -24
-375 -5 -375 -5 2 -107 2 -108 -69 0 -70 0 0 -70 0 -70 -70 0 -70 0 0 -70 0
-70 135 0 c101 0 135 3 136 13 1 6 2 37 3 67 l1 55 68 3 67 3 0 69 0 70 70 0
70 0 0 -70 0 -70 -70 0 -70 0 0 -135 0 -135 -205 0 -205 0 0 -70 0 -70 -70 0
-70 0 0 70 0 70 70 0 70 0 0 65 0 64 -137 3 -138 3 0 65 0 65 138 3 137 3 0
69 0 70 -205 0 -205 0 0 -70 0 -70 -140 0 -140 0 0 138 0 138 -65 -1 -65 0 0
-67 0 -68 -70 0 -70 0 0 -140 0 -140 -70 0 -70 0 0 -65 0 -65 -69 0 -68 0 1
65 1 65 68 0 67 0 0 70 0 70 -135 0 -135 0 0 205 0 205 135 0 135 0 0 70 0 70
-135 0 -135 0 0 205 0 205 -70 0 -70 0 0 70 0 70 70 0 70 0 0 135 0 135 -70 0
-70 0 2 207 3 208 45 3 c84 6 90 1 90 -73 l0 -65 68 0 67 0 1 -70 0 -70 -68 0
-68 0 0 -70 0 -70 64 0 63 0 6 -38 c4 -20 4 -50 2 -64 l-5 -27 137 -3 138 -3
3 -67 3 -68 69 0 70 0 0 135 0 135 -70 0 -70 0 0 70 0 70 205 0 205 0 0 70 0
70 70 0 70 0 0 65 c0 36 -3 65 -7 66 -5 0 -35 1 -68 2 l-60 2 -3 138 -3 137
71 0 70 0 0 70 0 70 135 0 135 0 0 65 0 65 70 0 70 0 0 70 0 71 138 -3 137 -3
2 -130z m961 -137 l-3 -133 -67 -3 -68 -3 0 136 0 135 71 0 70 0 -3 -132z
m-2338 -208 l0 -70 140 0 140 0 0 70 0 70 65 0 65 0 0 -70 0 -70 -65 0 -65 0
0 -68 0 -68 40 4 c22 2 51 1 65 -2 23 -6 25 -10 25 -71 l0 -65 -65 0 -64 0 -3
68 -3 67 -55 0 c-81 0 -80 1 -80 -71 l0 -65 -137 3 -138 3 -3 44 c-6 82 -1 89
70 89 l63 -1 3 67 3 66 -136 0 -135 0 0 70 0 70 135 0 135 0 0 -70z m0 -550
l0 -70 -65 0 c-36 0 -65 3 -66 8 -4 30 -4 109 -1 120 3 8 26 12 68 12 l64 0 0
-70z m3980 -270 l0 -70 -205 0 -205 0 0 70 0 70 205 0 205 0 0 -70z m-4390
-550 l0 -70 -70 0 -70 0 0 70 0 70 70 0 70 0 0 -70z m0 -274 l0 -64 -97 -7
c-54 -3 -146 -5 -205 -3 l-108 3 0 67 0 68 205 0 205 0 0 -64z m3980 -205 l0
-141 -70 0 -70 0 0 -135 0 -135 -69 0 -68 0 1 133 1 132 68 3 67 3 0 134 c0
150 -7 139 88 144 l52 2 0 -140z m-1510 64 l0 -65 -70 0 -70 0 0 -140 0 -140
-64 0 c-66 0 -78 8 -71 46 2 11 4 97 4 192 l1 172 135 0 135 0 0 -65z m1780
-135 l0 -70 70 0 70 0 0 -135 0 -135 -135 0 -135 0 0 -70 0 -70 65 0 65 0 0
-70 0 -70 -65 0 -65 0 0 -135 0 -135 -70 0 -70 0 0 340 0 340 135 0 135 0 0
70 0 70 -65 0 -65 0 0 70 0 70 65 0 65 0 0 -70z m-4390 -140 l0 -70 140 0 140
0 0 -65 0 -65 -205 0 -205 0 0 65 0 65 -70 0 -70 0 0 70 0 70 135 0 135 0 0
-70z m3710 -135 l0 -65 -70 0 -70 0 0 65 0 65 70 0 70 0 0 -65z m-2332 -114
c7 -93 10 -91 -143 -91 l-135 0 0 70 0 71 138 -3 137 -3 3 -44z m544 -103 c2
-7 4 -38 4 -68 l-1 -55 -67 -3 -67 -3 -3 -67 -3 -67 -55 0 c-80 -1 -80 -1 -80
71 l0 64 70 0 70 0 0 70 0 70 64 0 c42 0 65 -4 68 -12z m2058 -193 l0 -205
-205 0 -205 0 0 205 0 205 205 0 205 0 0 -205z m-139 -352 c1 -5 3 -33 4 -63
1 -30 3 -58 4 -62 0 -5 30 -8 66 -8 l65 0 0 70 0 70 70 0 70 0 0 -70 0 -70
-70 0 -70 0 0 -65 0 -65 -65 0 -65 0 -1 -62 c-1 -35 -1 -66 0 -70 0 -5 -30 -8
-69 -8 l-70 0 0 205 0 205 65 0 c36 0 66 -3 66 -7z m-1914 -335 l1 -68 -69 0
-69 0 0 70 0 71 68 -3 67 -3 2 -67z"/>
<path d="M2240 3915 l0 -135 -135 0 c-101 0 -135 -3 -135 -12 0 -7 -2 -67 -3
-134 l-2 -121 129 -6 c72 -3 134 -3 138 -1 4 3 8 34 8 70 l0 64 70 0 70 0 0
70 0 70 65 0 65 0 1 33 c0 17 1 49 3 70 l3 37 -69 0 -68 0 0 65 0 65 -70 0
-70 0 0 -135z"/>
<path d="M3890 3710 l0 -70 65 0 65 0 0 70 0 70 -65 0 -65 0 0 -70z"/>
<path d="M4162 3573 l3 -68 55 -1 c30 0 61 -1 68 -2 8 -1 12 -23 12 -67 l0
-65 -140 0 -140 0 0 -140 0 -140 70 0 70 0 0 70 0 70 205 0 205 0 0 -70 0 -70
70 0 70 0 0 70 0 70 -70 0 -69 0 -3 138 -3 137 -58 1 c-31 1 -61 4 -65 8 -4 4
-7 33 -7 64 l0 57 -138 3 -138 3 3 -68z"/>
<path d="M2240 3464 l0 -44 70 0 70 0 0 40 c0 25 -5 40 -12 41 -7 0 -39 2 -70
4 l-58 4 0 -45z"/>
<path d="M1969 3353 c-1 -10 0 -33 1 -50 4 -73 4 -73 -146 -73 l-134 0 0 -70
0 -70 70 0 70 0 0 -65 0 -65 80 -1 c44 -1 87 -1 95 -1 45 0 44 -6 47 170 3
154 5 169 26 199 12 17 22 34 22 37 0 3 -29 6 -65 6 -55 0 -65 -3 -66 -17z"/>
<path d="M2466 3131 c-20 -22 -15 -56 9 -65 12 -4 15 -28 15 -114 l0 -109 -55
-38 c-117 -80 -180 -222 -160 -359 l7 -46 444 0 444 0 6 26 c12 47 -4 162 -30
219 -27 60 -91 134 -142 166 l-34 21 0 113 c0 88 3 115 15 125 38 31 -1 94
-44 71 -30 -17 -32 -48 -5 -70 24 -19 25 -23 22 -123 -2 -62 -7 -102 -13 -101
-5 2 -37 12 -70 24 -81 29 -225 29 -307 1 -31 -11 -59 -18 -62 -15 -3 4 -6 48
-6 98 0 79 3 94 20 110 25 23 26 61 1 75 -27 14 -35 13 -55 -9z m162 -527 c42
-29 21 -102 -31 -105 -39 -2 -52 2 -69 23 -23 26 -23 40 3 72 24 30 63 34 97
10z m302 -4 c42 -42 13 -100 -51 -102 -61 -2 -89 73 -42 110 25 18 70 15 93
-8z"/>
<path d="M1560 2952 c-6 -2 -10 -33 -10 -68 l0 -64 -65 0 -65 0 0 -140 0 -140
65 0 65 0 0 -65 0 -65 -65 0 -65 0 0 65 c0 36 -3 66 -7 66 -25 4 -110 5 -120
1 -9 -3 -13 -26 -13 -68 l0 -64 -70 0 -70 0 0 65 c0 36 -3 65 -7 66 -5 0 -34
2 -65 3 l-58 3 0 -53 c0 -29 -3 -59 -6 -68 -5 -14 4 -16 65 -16 l71 0 0 -70 0
-70 70 0 70 0 0 -70 0 -70 -70 0 -70 0 0 -67 0 -68 -67 0 -67 0 -2 -67 -2 -68
139 0 139 0 0 135 0 135 135 0 135 0 0 -64 c0 -73 1 -74 80 -72 l55 1 3 68 3
67 134 0 134 0 7 -45 c3 -25 4 -53 1 -64 -4 -16 4 -19 77 -25 44 -3 107 -6
139 -6 l57 0 0 -65 0 -65 70 0 71 0 -3 68 -3 67 -67 3 -68 3 0 38 c0 36 -2 39
-34 44 -71 11 -142 82 -153 153 l-6 34 -178 0 -179 0 0 -70 0 -70 -70 0 -70 0
0 140 0 140 70 0 70 0 0 135 0 136 137 -3 137 -3 1 -60 c0 -58 1 -60 29 -67
54 -12 56 -7 56 138 l0 134 -180 0 -180 0 0 64 0 64 -60 4 c-33 1 -65 2 -70 0z
m130 -202 l0 -70 -70 0 -70 0 0 70 0 70 70 0 70 0 0 -70z m-270 -410 l0 -70
-70 0 -70 0 0 70 0 70 70 0 70 0 0 -70z"/>
<path d="M3755 2952 c-3 -3 -5 -34 -5 -69 l0 -63 70 0 70 0 0 65 c0 36 -3 65
-7 66 -42 4 -124 4 -128 1z"/>
<path d="M1008 2803 c-2 -10 -2 -42 0 -70 l4 -53 64 0 64 0 0 70 0 70 -64 0
c-52 0 -64 -3 -68 -17z"/>
<path d="M2270 2345 l0 -25 455 0 455 0 0 25 0 25 -455 0 -455 0 0 -25z"/>
<path d="M1690 1928 l0 -68 70 0 70 0 0 65 c0 73 9 65 -92 70 l-48 2 0 -69z"/>
<path d="M4302 1103 l3 -67 63 0 62 -1 0 52 c0 28 3 58 6 67 5 14 -4 16 -65
16 l-72 0 3 -67z"/>
<path d="M3060 5220 l0 -70 70 0 70 0 0 -70 0 -70 70 0 70 0 0 -65 0 -65 -70
0 -70 0 0 -70 0 -70 70 0 70 0 0 70 0 69 68 3 c67 3 67 3 68 33 0 17 1 45 2
63 l2 32 65 0 65 0 0 140 0 140 -135 0 -135 0 0 -70 0 -70 -70 0 -70 0 0 70 0
70 -70 0 -70 0 0 -70z"/>
<path d="M4300 4810 l0 -480 480 0 480 0 0 480 0 480 -480 0 -480 0 0 -480z
m818 -2 l-3 -343 -336 -3 -337 -2 -5 21 c-9 32 -9 654 -1 662 4 4 160 7 346 7
l338 0 -2 -342z"/>
<path d="M4570 4805 l0 -205 205 0 205 0 0 205 0 205 -205 0 -205 0 0 -205z"/>
<path d="M180 3435 l0 -205 70 0 70 0 0 135 c0 101 3 135 13 137 38 4 56 6 90
7 l37 1 0 65 0 65 -140 0 -140 0 0 -205z"/>
<path d="M4160 2200 l0 -70 70 0 70 0 0 70 0 70 -70 0 -70 0 0 -70z"/>
<path d="M1280 1240 l0 -70 70 0 70 0 0 70 0 70 -70 0 -70 0 0 -70z"/>
<path d="M3340 1240 l0 -70 135 0 135 0 0 70 0 70 -135 0 -135 0 0 -70z"/>
<path d="M180 690 l0 -480 480 0 480 0 0 480 0 480 -480 0 -480 0 0 -480z
m814 344 c10 -4 13 -78 14 -304 2 -164 -1 -317 -4 -340 l-7 -40 -338 0 -339 0
0 338 c0 186 3 342 6 345 8 7 649 8 668 1z"/>
<path d="M460 695 l0 -205 205 0 205 0 0 205 0 205 -205 0 -205 0 0 -205z"/>
<path d="M3206 1032 c-3 -3 -6 -34 -6 -69 l0 -63 139 0 138 0 -1 65 -1 65
-100 1 c-55 0 -114 2 -132 4 -17 2 -34 1 -37 -3z"/>
<path d="M1420 280 l0 -70 65 0 65 0 0 70 0 70 -65 0 -65 0 0 -70z"/>
<path d="M4980 280 l0 -70 140 0 140 0 0 70 0 70 -140 0 -140 0 0 -70z"/>
</g>
</svg>
