<?xml version="1.0" standalone="no"?>
<!DOCTYPE svg PUBLIC "-//W3C//DTD SVG 20010904//EN"
 "http://www.w3.org/TR/2001/REC-SVG-20010904/DTD/svg10.dtd">
<svg version="1.0" xmlns="http://www.w3.org/2000/svg"
 width="1920.000000pt" height="540.000000pt" viewBox="0 0 1920.000000 540.000000"
 preserveAspectRatio="xMidYMid meet">
<metadata>
Created by potrace 1.16, written by Peter Selinger 2001-2019
</metadata>
<g transform="translate(0.000000,540.000000) scale(0.100000,-0.100000)"
fill="#44a838" stroke="none">
<path d="M2710 4733 c-36 -63 -73 -129 -83 -146 l-19 -30 -73 73 -74 74 -23
-20 c-13 -11 -52 -46 -87 -77 l-63 -56 -77 59 c-42 33 -85 75 -95 95 -34 62
-126 115 -200 115 -139 0 -263 -140 -241 -273 15 -87 83 -172 159 -197 l36
-12 0 -531 0 -532 -73 -39 c-441 -240 -796 -650 -941 -1086 -75 -225 -79 -259
-83 -718 l-5 -412 2279 0 2279 0 14 178 c18 248 9 582 -20 717 -106 497 -421
930 -904 1244 -61 39 -114 71 -118 71 -4 0 -8 250 -8 555 l0 555 37 15 c60 25
99 61 127 117 44 87 32 184 -32 258 -51 60 -104 84 -182 84 -47 0 -76 -6 -106
-22 -78 -41 -134 -128 -134 -210 0 -31 -22 -53 -52 -52 -7 1 -53 64 -102 141
l-88 140 -70 -123 c-39 -68 -77 -134 -85 -147 l-15 -23 -72 71 -73 72 -112
-55 -113 -55 -54 34 c-30 19 -59 35 -65 35 -5 0 -46 -21 -90 -46 -45 -25 -85
-42 -89 -37 -5 4 -36 77 -71 161 -34 83 -65 152 -68 152 -3 0 -35 -53 -71
-117z m134 -108 c32 -80 59 -145 61 -145 1 0 42 22 91 50 49 27 96 49 104 49
8 0 38 -15 65 -33 l50 -33 110 54 109 54 81 -81 81 -80 79 140 c44 77 82 140
85 140 3 0 18 -21 35 -48 16 -26 53 -84 82 -129 l53 -82 37 16 c26 10 38 12
41 4 16 -47 72 -108 125 -135 l57 -29 0 -523 0 -524 -57 26 c-366 164 -699
238 -1078 237 -381 -1 -704 -67 -1057 -217 l-38 -16 0 509 0 509 34 12 c84 28
156 125 159 218 2 45 0 45 79 -16 l57 -44 84 75 83 76 80 -80 80 -80 44 78
c85 151 111 193 118 193 4 0 33 -66 66 -145z m-419 -2509 c149 -39 248 -151
247 -281 0 -67 -11 -102 -48 -156 -82 -120 -297 -177 -431 -115 -62 29 -123
90 -155 154 -34 69 -32 169 4 238 33 63 114 137 171 157 53 19 147 21 212 3z
m1546 -15 c122 -47 199 -150 199 -269 0 -78 -16 -118 -75 -180 -65 -70 -145
-105 -257 -110 -76 -4 -92 -1 -140 20 -157 73 -226 246 -155 390 33 67 109
140 170 162 59 22 185 15 258 -13z"/>
<path d="M13340 4062 c-46 -81 -85 -149 -87 -151 -2 -3 -37 28 -78 69 l-75 74
-27 -25 c-16 -14 -54 -48 -86 -77 l-58 -52 -96 77 -96 76 -144 -71 c-79 -40
-145 -72 -147 -72 -2 0 -7 19 -10 43 -19 123 -144 220 -263 203 -84 -11 -166
-73 -197 -148 -38 -90 -5 -216 73 -278 l41 -33 0 -1284 0 -1283 110 0 110 0 0
578 c0 635 2 657 61 773 39 78 144 186 216 223 154 78 354 72 497 -14 74 -44
158 -137 197 -215 56 -116 59 -145 59 -772 l0 -573 105 0 106 0 -4 628 c-3
696 -1 671 -73 817 -87 179 -255 315 -453 366 -106 28 -287 28 -392 1 -92 -25
-195 -76 -264 -131 l-50 -40 -3 466 c-2 437 -1 468 15 477 33 18 83 80 95 116
10 33 20 40 156 105 80 39 151 70 157 69 6 -1 53 -34 103 -74 l92 -72 86 77
87 77 78 -78 c43 -43 80 -76 82 -73 2 2 38 64 79 137 42 74 78 130 81 125 3
-4 30 -71 62 -148 31 -77 58 -141 60 -143 2 -2 43 19 93 47 49 28 96 51 104
51 7 0 37 -16 65 -35 29 -19 55 -35 59 -35 4 0 54 27 111 61 l103 61 81 -77
82 -76 74 140 c41 78 77 141 81 141 4 0 44 -54 90 -120 46 -66 87 -120 92
-120 4 0 38 13 74 29 l65 30 38 -49 c21 -27 42 -49 47 -50 4 0 53 29 107 65
55 36 102 65 105 65 3 0 44 -30 91 -66 47 -36 87 -63 89 -61 2 2 30 66 62 142
31 76 62 140 67 141 6 2 52 -48 104 -111 52 -63 97 -113 100 -111 3 2 34 20
69 40 l62 38 65 -22 c72 -24 95 -41 95 -71 0 -34 38 -95 84 -136 l45 -40 3
-1079 c3 -994 5 -1084 21 -1138 55 -185 180 -302 365 -342 44 -9 132 -14 255
-14 l187 0 0 99 0 99 -197 4 c-231 5 -274 17 -343 96 -70 79 -70 75 -70 719
l0 573 305 0 305 0 0 105 0 105 -305 0 -305 0 0 391 0 391 44 39 c136 120 90
343 -85 404 -23 8 -56 15 -73 15 -96 0 -205 -79 -228 -165 -7 -25 -17 -45 -24
-45 -6 0 -41 11 -78 25 l-66 25 -57 -35 c-32 -19 -62 -35 -68 -35 -5 0 -57 57
-114 125 -58 69 -108 122 -111 118 -4 -5 -31 -66 -60 -138 -29 -71 -56 -138
-62 -148 -8 -15 -18 -10 -86 43 -43 33 -81 60 -85 60 -4 0 -52 -30 -107 -66
l-100 -67 -22 29 c-13 16 -32 39 -43 52 l-21 24 -62 -31 c-34 -17 -65 -31 -70
-31 -4 0 -50 61 -102 136 -80 114 -96 133 -106 119 -6 -8 -42 -74 -78 -145
-37 -72 -70 -130 -73 -130 -3 0 -38 30 -79 66 l-73 66 -101 -61 c-56 -34 -105
-61 -110 -61 -5 0 -34 16 -64 35 -30 19 -60 35 -66 35 -6 0 -47 -21 -91 -46
-45 -25 -84 -43 -87 -40 -3 4 -36 78 -72 166 l-66 159 -84 -147z"/>
<path d="M9393 2959 c-215 -21 -397 -106 -547 -256 -122 -122 -209 -274 -252
-443 -29 -114 -27 -376 4 -483 97 -339 362 -588 707 -663 109 -23 335 -24 429
-1 276 69 504 254 625 508 54 112 72 183 78 307 l6 102 -112 0 -111 0 0 -49
c0 -307 -240 -593 -557 -665 -89 -20 -235 -20 -328 -1 -234 49 -442 244 -517
485 -20 64 -23 96 -23 220 0 124 3 156 23 220 32 100 64 161 128 247 145 190
353 284 600 270 165 -9 290 -59 400 -160 45 -41 53 -52 42 -63 -7 -6 -251
-173 -543 -369 -291 -196 -534 -361 -539 -365 -7 -7 68 -121 114 -173 5 -6
911 600 1282 858 17 11 14 18 -31 81 -98 140 -268 273 -431 337 -124 49 -300
71 -447 56z"/>
<path d="M11410 2960 c-150 -15 -311 -72 -427 -151 -169 -115 -299 -300 -355
-504 -18 -67 -21 -108 -22 -250 0 -145 3 -183 22 -260 86 -340 357 -589 709
-650 56 -10 152 -15 279 -15 l194 0 0 109 0 109 -222 5 c-248 5 -291 13 -418
75 -104 51 -222 168 -273 272 -60 122 -72 184 -71 355 0 134 3 158 27 230 15
44 43 109 64 144 54 90 166 192 267 241 118 58 186 70 424 70 l202 0 0 115 0
115 -162 -1 c-90 -1 -197 -5 -238 -9z"/>
<path d="M14600 2959 c-197 -23 -380 -116 -517 -263 -79 -84 -116 -138 -163
-239 -60 -127 -81 -221 -87 -382 -6 -164 10 -276 58 -408 62 -172 220 -363
378 -457 203 -121 487 -152 695 -76 79 28 204 102 270 158 l46 40 0 134 0 134
-77 -78 c-169 -169 -315 -230 -528 -219 -167 8 -286 65 -415 196 -143 145
-210 315 -210 532 0 216 77 401 225 544 202 195 472 238 720 116 176 -87 315
-278 359 -493 13 -64 16 -160 16 -573 l0 -495 105 0 105 0 0 514 c0 553 -3
589 -54 736 -66 192 -221 375 -408 483 -73 42 -217 86 -319 97 -104 11 -95 11
-199 -1z"/>
<path d="M6003 2263 c3 -603 5 -674 21 -727 64 -215 217 -366 427 -423 87 -23
271 -23 359 0 133 36 235 106 300 207 18 27 33 50 35 50 2 0 15 -20 29 -44 36
-61 126 -140 199 -175 93 -43 158 -56 292 -55 101 1 132 5 201 27 198 65 338
215 397 426 20 73 21 100 25 729 l3 652 -110 0 -111 0 0 -630 c0 -421 -4 -646
-11 -682 -31 -148 -137 -261 -283 -303 -85 -25 -214 -17 -290 18 -73 34 -159
116 -190 181 -44 95 -46 124 -46 786 l0 630 -110 0 -110 0 0 -644 c0 -613 -1
-647 -20 -708 -36 -117 -102 -192 -218 -246 -51 -24 -69 -27 -167 -27 -103 0
-114 2 -175 31 -36 17 -84 48 -107 68 -59 51 -110 159 -123 256 -5 41 -10 344
-10 673 l0 597 -106 0 -105 0 4 -667z"/>
<path d="M16970 2372 c0 -326 4 -592 10 -641 23 -176 86 -313 202 -436 99
-104 225 -172 356 -190 l52 -7 0 -269 0 -269 115 0 115 0 0 269 0 269 67 12
c197 34 365 167 462 364 77 158 74 127 78 829 l4 627 -106 0 -105 0 0 -564 c0
-624 -3 -661 -61 -784 -39 -81 -140 -187 -216 -226 -154 -77 -350 -75 -492 6
-75 43 -160 133 -199 209 -62 125 -62 124 -62 771 l0 588 -110 0 -110 0 0
-558z"/>
<path d="M770 755 l0 -145 2300 0 2300 0 0 145 0 145 -2300 0 -2300 0 0 -145z"/>
</g>
</svg>
